<?xml version="1.0" encoding="UTF-8" standalone="no"?>
<svg
   xmlns:dc="http://purl.org/dc/elements/1.1/"
   xmlns:cc="http://creativecommons.org/ns#"
   xmlns:rdf="http://www.w3.org/1999/02/22-rdf-syntax-ns#"
   xmlns:svg="http://www.w3.org/2000/svg"
   xmlns="http://www.w3.org/2000/svg"
   xmlns:sodipodi="http://sodipodi.sourceforge.net/DTD/sodipodi-0.dtd"
   xmlns:inkscape="http://www.inkscape.org/namespaces/inkscape"
   width="210mm"
   height="297mm"
   viewBox="0 0 210 297"
   version="1.1"
   id="svg8"
   inkscape:version="1.0.1 (3bc2e813f5, 2020-09-07)"
   sodipodi:docname="Train.svg">
  <defs
     id="defs2" />
  <sodipodi:namedview
     id="base"
     pagecolor="#ffffff"
     bordercolor="#666666"
     borderopacity="1.0"
     inkscape:pageopacity="0.0"
     inkscape:pageshadow="2"
     inkscape:zoom="0.7"
     inkscape:cx="400"
     inkscape:cy="528.97753"
     inkscape:document-units="mm"
     inkscape:current-layer="layer1"
     inkscape:document-rotation="0"
     showgrid="false"
     inkscape:snap-object-midpoints="true"
     inkscape:snap-midpoints="false"
     inkscape:object-nodes="false"
     inkscape:object-paths="true"
     inkscape:snap-intersection-paths="false"
     inkscape:snap-smooth-nodes="true"
     inkscape:snap-bbox="false"
     inkscape:bbox-paths="true"
     inkscape:snap-global="true"
     inkscape:snap-page="true"
     inkscape:window-width="1920"
     inkscape:window-height="1137"
     inkscape:window-x="-8"
     inkscape:window-y="-8"
     inkscape:window-maximized="1" />
  <metadata
     id="metadata5">
    <rdf:RDF>
      <cc:Work
         rdf:about="">
        <dc:format>image/svg+xml</dc:format>
        <dc:type
           rdf:resource="http://purl.org/dc/dcmitype/StillImage" />
        <dc:title />
      </cc:Work>
    </rdf:RDF>
  </metadata>
  <g
     inkscape:label="Шар 1"
     inkscape:groupmode="layer"
     id="layer1">
    <path
       id="rect10"
       style="fill:#000000;fill-rule:evenodd;stroke:none;stroke-width:1.78458;stroke-opacity:0.8;paint-order:markers fill stroke;stop-color:#000000"
       d="m 49.926964,118.79061 c -3.954629,0 -7.138066,3.18345 -7.138066,7.13807 v 47.78003 c 0,3.95461 3.183437,7.13806 7.138066,7.13806 h 47.780027 c 3.954629,0 7.138579,-3.18345 7.138579,-7.13806 v -47.78003 c 0,-3.95462 -3.18395,-7.13807 -7.138579,-7.13807 z m 23.890015,8.87491 a 10.728174,10.728174 0 0 1 10.728542,10.72803 10.728174,10.728174 0 0 1 -5.330939,9.27179 l 5.617744,19.20709 H 62.802147 l 5.617745,-19.20761 a 10.728174,10.728174 0 0 1 -5.330942,-9.27127 10.728174,10.728174 0 0 1 10.728029,-10.72803 z" />
    <rect
       style="fill:#000000;fill-rule:evenodd;stroke:none;stroke-width:1.27412;stroke-opacity:0.8;paint-order:markers fill stroke;stop-color:#000000"
       id="rect12"
       width="72.428261"
       height="39.797195"
       x="92.452728"
       y="141.0498"
       rx="4.0341315"
       ry="7.1383152" />
    <path
       style="font-variation-settings:normal;opacity:1;vector-effect:none;fill:none;fill-opacity:1;fill-rule:evenodd;stroke:#000000;stroke-width:3.2094;stroke-linecap:round;stroke-linejoin:round;stroke-miterlimit:4;stroke-dasharray:none;stroke-dashoffset:0;stroke-opacity:1;stop-color:#000000;stop-opacity:1"
       id="path14"
       sodipodi:type="arc"
       sodipodi:cx="-73.481369"
       sodipodi:cy="-186.77278"
       sodipodi:rx="71.333786"
       sodipodi:ry="71.333786"
       sodipodi:start="1.0471976"
       sodipodi:end="2.0943951"
       sodipodi:arc-type="arc"
       d="m -37.814479,-124.99591 a 71.333786,71.333786 0 0 1 -71.333781,0"
       transform="scale(-1)"
       sodipodi:open="true" />
    <path
       id="path16"
       style="font-variation-settings:normal;opacity:1;vector-effect:none;fill:#000000;fill-opacity:1;fill-rule:evenodd;stroke-width:0.225474;stroke-linecap:butt;stroke-linejoin:miter;stroke-miterlimit:4;stroke-dasharray:none;stroke-dashoffset:0;stroke-opacity:1;stop-color:#000000;stop-opacity:1"
       d="m 62.877077,166.61612 a 11.466981,11.466981 0 0 0 -9.150863,11.23083 11.466981,11.466981 0 0 0 11.466999,11.46701 11.466981,11.466981 0 0 0 11.467002,-11.46701 11.466981,11.466981 0 0 0 -8.143174,-10.97452 h -5.714894 z" />
    <path
       id="circle18"
       style="font-variation-settings:normal;opacity:1;vector-effect:none;fill:#000000;fill-opacity:1;fill-rule:evenodd;stroke-width:0.225474;stroke-linecap:butt;stroke-linejoin:miter;stroke-miterlimit:4;stroke-dasharray:none;stroke-dashoffset:0;stroke-opacity:1;stop-color:#000000;stop-opacity:1"
       d="m 91.127031,166.37995 a 11.466981,11.466981 0 0 0 -11.466483,11.467 11.466981,11.466981 0 0 0 11.466483,11.46701 11.466981,11.466981 0 0 0 11.466999,-11.46701 11.466981,11.466981 0 0 0 -11.466999,-11.467 z" />
    <circle
       style="font-variation-settings:normal;opacity:1;vector-effect:none;fill:#000000;fill-opacity:1;fill-rule:evenodd;stroke-width:0.225474;stroke-linecap:butt;stroke-linejoin:miter;stroke-miterlimit:4;stroke-dasharray:none;stroke-dashoffset:0;stroke-opacity:1;stop-color:#000000;stop-opacity:1"
       id="circle20"
       cx="141.8723"
       cy="177.847"
       r="11.466981" />
    <rect
       style="fill:#000000;fill-rule:evenodd;stroke:none;stroke-width:1.6372;stroke-opacity:0.8;paint-order:markers fill stroke;stop-color:#000000"
       id="rect22"
       width="19.302368"
       height="37.107929"
       x="132.22112"
       y="129.82605"
       rx="6.0079589"
       ry="7.1383104" />
    <rect
       style="fill:#000000;fill-rule:evenodd;stroke:none;stroke-width:1.41715;stroke-opacity:0.8;paint-order:markers fill stroke;stop-color:#000000"
       id="rect24"
       width="25.096403"
       height="14.165094"
       x="129.32411"
       y="122.74352"
       rx="2.7547185"
       ry="3.5691576" />
    <path
       id="rect851"
       style="fill:#000000;fill-rule:evenodd;stroke:none;stroke-width:4.34732;stroke-linecap:round;stroke-linejoin:round;stroke-miterlimit:4;stroke-dasharray:none;stroke-opacity:1;paint-order:markers fill stroke;stop-color:#000000"
       d="m 63.283771,115.88485 c -2.987374,0 -5.392436,1.56301 -5.392436,3.50469 v 35.38182 c 0,1.94167 2.405062,3.5047 5.392436,3.5047 h 2.032434 l 3.103687,-10.61124 a 10.728174,10.728174 0 0 1 -5.330942,-9.27127 10.728174,10.728174 0 0 1 10.728029,-10.72803 10.728174,10.728174 0 0 1 10.728542,10.72803 10.728174,10.728174 0 0 1 -5.330939,9.27179 l 3.103684,10.61072 h 2.791563 c 2.987371,0 5.392436,-1.56303 5.392436,-3.5047 v -35.38182 c 0,-1.94168 -2.405065,-3.50469 -5.392436,-3.50469 z" />
  </g>
</svg>
